<?xml version="1.0" encoding="UTF-8" standalone="no"?>
<!DOCTYPE svg PUBLIC "-//W3C//DTD SVG 1.1//EN" "http://www.w3.org/Graphics/SVG/1.1/DTD/svg11.dtd">
<svg width="100%" height="100%" viewBox="0 0 257 251" version="1.1" xmlns="http://www.w3.org/2000/svg" xmlns:xlink="http://www.w3.org/1999/xlink" xml:space="preserve" xmlns:serif="http://www.serif.com/" style="fill-rule:evenodd;clip-rule:evenodd;stroke-linejoin:round;stroke-miterlimit:2;">
    <g transform="matrix(1,0,0,1,269.721415,-462.454878)">
        <g transform="matrix(1,0,0,1,-580.205558,142.384159)">
            <g transform="matrix(1,0,0,1,157.1076,-39.751473)">
                <path d="M153.377,524.963L153.377,359.822L217.549,359.822L217.549,462.344L153.377,524.963Z" style="fill:white;"/>
            </g>
            <g transform="matrix(1,0,0,1,157.1076,-39.751473)">
                <path d="M217.549,571.026L217.549,610.669L177.167,610.669L217.549,571.026Z" style="fill:white;"/>
            </g>
            <path d="M450.141,457.172L566.007,570.918L438.245,570.918L386.018,520.121L450.141,457.172Z" style="fill:rgb(0,150,199);"/>
            <path d="M310.484,508.498L503.587,320.071L566.007,320.071L310.484,570.918L310.484,508.498Z" style="fill:white;"/>
            <path d="M503.587,445.494L535.089,413.992L566.591,445.494L535.089,476.996L503.587,445.494Z" style="fill:rgb(0,150,199);"/>
        </g>
    </g>
</svg>
