<?xml version="1.0" encoding="UTF-8" standalone="no"?><!DOCTYPE svg PUBLIC "-//W3C//DTD SVG 1.1//EN" "http://www.w3.org/Graphics/SVG/1.1/DTD/svg11.dtd"><svg width="100%" height="100%" viewBox="0 0 67 67" version="1.1" xmlns="http://www.w3.org/2000/svg" xmlns:xlink="http://www.w3.org/1999/xlink" xml:space="preserve" xmlns:serif="http://www.serif.com/" style="fill-rule:evenodd;clip-rule:evenodd;stroke-linejoin:round;stroke-miterlimit:2;"><path d="M66.667,33.333c0,18.286 -15.047,33.333 -33.333,33.333c-18.286,0 -33.333,-15.047 -33.333,-33.333c-0,-18.286 15.047,-33.333 33.333,-33.333c18.286,-0 33.333,15.047 33.333,33.333m-16.542,-12.625c-0.586,-0.583 -1.379,-0.911 -2.206,-0.911c-0.871,0 -1.703,0.364 -2.294,1.003l-14.471,18.438l-8.721,-8.725c-0.578,-0.539 -1.34,-0.839 -2.13,-0.839c-1.714,0 -3.125,1.411 -3.125,3.125c0,0.79 0.3,1.552 0.839,2.13l11.025,11.029c0.586,0.585 1.38,0.913 2.208,0.913c0.868,0 1.697,-0.361 2.288,-0.997l16.633,-20.792c1.172,-1.219 1.153,-3.179 -0.042,-4.375l-0.004,0Z" style="fill:#1b4746;fill-rule:nonzero;"/></svg>